# Blender v2.79 (sub 0) OBJ File: ''
# www.blender.org
mtllib Bana.mtl
o Box001
v -0.865552 0.000000 -0.865555
v 0.865552 0.000000 -0.865555
v 0.865552 -0.000000 0.865548
v -0.865552 -0.000000 0.865548
v 0.865552 0.346221 0.865548
v -0.865552 0.346221 0.865548
v -0.865552 0.346221 -0.865555
v 0.865552 0.346221 -0.865555
v 0.000017 0.346221 0.819508
v -0.159864 0.346221 0.803762
v -0.313600 0.346221 0.757126
v -0.455284 0.346221 0.681397
v -0.579473 0.346221 0.579476
v -0.681390 0.346221 0.455291
v -0.757122 0.346221 0.313607
v -0.803758 0.346221 0.159871
v -0.819504 0.346221 -0.000010
v 0.159899 0.346221 0.803762
v 0.313634 0.346221 0.757126
v 0.455318 0.346221 0.681394
v 0.579504 0.346221 0.579476
v 0.681425 0.346221 0.455291
v 0.757153 0.346221 0.313603
v 0.803789 0.346221 0.159867
v 0.819535 0.346221 -0.000014
v 0.803789 0.346221 -0.159892
v 0.757153 0.346221 -0.313631
v 0.681421 0.346221 -0.455315
v 0.579504 0.346221 -0.579501
v 0.455315 0.346221 -0.681418
v 0.313631 0.346221 -0.757150
v 0.159895 0.346221 -0.803786
v 0.000017 0.346221 -0.819532
v -0.159864 0.346221 -0.803786
v -0.313600 0.346221 -0.757150
v -0.455284 0.346221 -0.681418
v -0.579473 0.346221 -0.579501
v -0.681390 0.346221 -0.455311
v -0.757122 0.346221 -0.313627
v -0.803758 0.346221 -0.159892
v -0.107924 0.265458 -0.542659
v 0.000017 0.265458 -0.553292
v 0.107955 0.265458 -0.542659
v 0.000017 0.210966 -0.000010
v -0.211714 0.265458 -0.511174
v 0.211745 0.265458 -0.511174
v -0.307368 0.265458 -0.460048
v 0.307402 0.265458 -0.460048
v -0.391212 0.265458 -0.391240
v 0.391243 0.265458 -0.391240
v -0.460020 0.265458 -0.307395
v 0.460051 0.265458 -0.307399
v -0.511146 0.265458 -0.211742
v 0.511181 0.265458 -0.211742
v -0.542632 0.265458 -0.107952
v 0.542663 0.265458 -0.107952
v -0.553264 0.265458 -0.000010
v 0.553295 0.265458 -0.000010
v -0.542632 0.265458 0.107927
v 0.542666 0.265458 0.107927
v -0.511146 0.265458 0.211721
v 0.511181 0.265458 0.211717
v -0.460020 0.265458 0.307375
v 0.460051 0.265458 0.307375
v -0.391212 0.265458 0.391216
v 0.391243 0.265458 0.391216
v -0.307368 0.265458 0.460023
v 0.307402 0.265458 0.460023
v -0.211714 0.265458 0.511153
v 0.211749 0.265458 0.511153
v -0.107924 0.265458 0.542639
v 0.107955 0.265458 0.542639
v 0.000017 0.265458 0.553268
vt 0.000000 1.000000
vt 1.000000 0.000000
vt 1.000000 1.000000
vt 1.000000 1.000000
vt 0.000000 0.000000
vt 1.000000 0.000000
vt 1.000000 1.000000
vt 0.000000 0.000000
vt 1.000000 1.000000
vt 0.000000 0.000000
vt 1.000000 0.000000
vt 1.000000 1.000000
vt 0.000000 0.000000
vt 1.000000 0.000000
vt 0.000000 0.000000
vt 0.500000 0.026600
vt 0.407700 0.035700
vt 0.318800 0.062600
vt 0.237000 0.106400
vt 0.165300 0.165300
vt 0.106400 0.237000
vt 0.062600 0.318800
vt 0.035700 0.407600
vt 0.026600 0.500000
vt 0.000000 1.000000
vt 0.592400 0.035700
vt 1.000000 0.000000
vt 0.681200 0.062600
vt 0.763000 0.106400
vt 0.834800 0.165300
vt 0.893600 0.237000
vt 0.937400 0.318800
vt 0.964300 0.407600
vt 0.973400 0.500000
vt 0.964300 0.592400
vt 0.937400 0.681200
vt 0.893600 0.763000
vt 0.834800 0.834800
vt 0.763000 0.893600
vt 0.681200 0.937400
vt 0.592400 0.964300
vt 0.500000 0.973400
vt 0.407700 0.964300
vt 0.318800 0.937400
vt 0.237000 0.893600
vt 0.165300 0.834800
vt 0.106400 0.763000
vt 0.062600 0.681200
vt 0.035700 0.592400
vt 0.031300 0.093800
vt 0.000000 0.062500
vt 0.000000 0.093800
vt 1.000000 0.062500
vt 0.968800 0.093800
vt 1.000000 0.093800
vt 0.000000 -0.000000
vt 0.031300 0.062500
vt 0.062500 0.093800
vt 0.968800 0.062500
vt 0.937500 0.093800
vt 0.968800 -0.000000
vt 0.031300 -0.000000
vt 0.062500 0.062500
vt 0.093800 0.062500
vt 0.093800 0.093800
vt 0.906300 0.062500
vt 0.906300 0.093800
vt 0.937500 -0.000000
vt 0.937500 0.062500
vt 0.062500 -0.000000
vt 0.125000 0.062500
vt 0.125000 0.093800
vt 0.875000 0.093800
vt 0.906300 -0.000000
vt 0.093800 -0.000000
vt 0.156300 0.093800
vt 0.843800 0.062500
vt 0.843800 0.093800
vt 0.875000 -0.000000
vt 0.875000 0.062500
vt 0.125000 -0.000000
vt 0.156300 0.062500
vt 0.187500 0.093800
vt 0.812500 0.093800
vt 0.843800 -0.000000
vt 0.156300 -0.000000
vt 0.187500 0.062500
vt 0.218700 0.062500
vt 0.218700 0.093800
vt 0.812500 0.062500
vt 0.781300 0.093800
vt 0.812500 -0.000000
vt 0.187500 -0.000000
vt 0.250000 0.062500
vt 0.250000 0.093800
vt 0.781300 0.062500
vt 0.750000 0.093800
vt 0.781300 -0.000000
vt 0.218700 -0.000000
vt 0.281200 0.093800
vt 0.718800 0.062500
vt 0.718800 0.093800
vt 0.750000 -0.000000
vt 0.750000 0.062500
vt 0.250000 -0.000000
vt 0.281200 0.062500
vt 0.312500 0.062500
vt 0.312500 0.093800
vt 0.687500 0.093800
vt 0.718800 -0.000000
vt 0.281200 -0.000000
vt 0.343700 0.062500
vt 0.343700 0.093800
vt 0.656300 0.062500
vt 0.656300 0.093800
vt 0.687500 -0.000000
vt 0.687500 0.062500
vt 0.312500 -0.000000
vt 0.375000 0.093800
vt 0.625000 0.093800
vt 0.656300 -0.000000
vt 0.343700 -0.000000
vt 0.375000 0.062500
vt 0.406300 0.093800
vt 0.593800 0.062500
vt 0.593800 0.093800
vt 0.625000 -0.000000
vt 0.625000 0.062500
vt 0.375000 -0.000000
vt 0.406300 0.062500
vt 0.437500 0.062500
vt 0.437500 0.093800
vt 0.562500 0.062500
vt 0.562500 0.093800
vt 0.593800 -0.000000
vt 0.406300 -0.000000
vt 0.468800 0.062500
vt 0.468800 0.093800
vt 0.531300 0.093800
vt 0.562500 -0.000000
vt 0.437500 -0.000000
vt 0.500000 0.093800
vt 0.531300 0.062500
vt 0.531300 -0.000000
vt 0.468800 -0.000000
vt 0.500000 0.062500
vt 0.500000 -0.000000
vt 0.000000 1.000000
vt 0.000000 1.000000
vt 0.000000 1.000000
vn 0.0000 -1.0000 -0.0000
vn 0.0000 -0.0000 1.0000
vn -1.0000 -0.0000 0.0000
vn 0.0000 0.0000 -1.0000
vn 1.0000 0.0000 0.0000
vn -0.0000 1.0000 0.0000
vn 0.0566 0.9569 0.2847
vn -0.0000 0.9796 0.2010
vn -0.0000 0.9569 0.2903
vn -0.0566 0.9569 0.2847
vn 0.0392 0.9796 0.1971
vn 0.1111 0.9569 0.2682
vn -0.0392 0.9796 0.1971
vn -0.1111 0.9569 0.2682
vn 0.0769 0.9796 0.1857
vn 0.1116 0.9796 0.1671
vn 0.1613 0.9569 0.2414
vn -0.1117 0.9796 0.1671
vn -0.1613 0.9569 0.2414
vn -0.0769 0.9796 0.1857
vn 0.1421 0.9796 0.1421
vn 0.2053 0.9569 0.2053
vn -0.2053 0.9569 0.2053
vn 0.2414 0.9569 0.1613
vn -0.1671 0.9796 0.1117
vn -0.2414 0.9569 0.1613
vn -0.1421 0.9796 0.1421
vn 0.1671 0.9796 0.1116
vn 0.2682 0.9569 0.1111
vn -0.2682 0.9569 0.1111
vn 0.1857 0.9796 0.0769
vn 0.1971 0.9796 0.0392
vn 0.2847 0.9569 0.0566
vn -0.1857 0.9796 0.0769
vn -0.2847 0.9569 0.0566
vn 0.2010 0.9796 0.0000
vn 0.2903 0.9569 0.0000
vn -0.1971 0.9796 0.0392
vn -0.2903 0.9569 0.0000
vn 0.2847 0.9569 -0.0566
vn -0.1971 0.9796 -0.0392
vn -0.2847 0.9569 -0.0566
vn -0.2010 0.9796 0.0000
vn 0.1971 0.9796 -0.0392
vn 0.1857 0.9796 -0.0769
vn 0.2682 0.9569 -0.1111
vn -0.2682 0.9569 -0.1111
vn 0.1671 0.9796 -0.1117
vn 0.2414 0.9569 -0.1613
vn -0.1671 0.9796 -0.1117
vn -0.2414 0.9569 -0.1613
vn -0.1857 0.9796 -0.0769
vn 0.2053 0.9569 -0.2053
vn -0.2053 0.9569 -0.2053
vn 0.1421 0.9796 -0.1421
vn 0.1613 0.9569 -0.2414
vn -0.1117 0.9796 -0.1671
vn -0.1613 0.9569 -0.2414
vn -0.1421 0.9796 -0.1421
vn 0.1117 0.9796 -0.1671
vn 0.0769 0.9796 -0.1857
vn 0.1111 0.9569 -0.2682
vn -0.0769 0.9796 -0.1857
vn -0.1111 0.9569 -0.2682
vn 0.0392 0.9796 -0.1971
vn 0.0566 0.9569 -0.2847
vn -0.0566 0.9569 -0.2847
vn -0.0000 0.9569 -0.2903
vn -0.0392 0.9796 -0.1971
vn -0.0000 0.9796 -0.2010
usemtl wire_113135006
s 1
f 2/1/1 4/2/1 1/3/1
f 5/4/2 4/5/2 3/6/2
f 6/7/3 1/8/3 4/2/3
f 7/9/4 2/10/4 1/11/4
f 8/12/5 3/13/5 2/14/5
f 6/15/6 9/16/6 10/17/6
f 6/15/6 11/18/6 12/19/6
f 6/15/6 13/20/6 14/21/6
f 6/15/6 15/22/6 16/23/6
f 6/15/6 17/24/6 7/25/6
f 18/26/6 5/27/6 19/28/6
f 20/29/6 5/27/6 21/30/6
f 22/31/6 5/27/6 23/32/6
f 24/33/6 5/27/6 25/34/6
f 25/34/6 8/12/6 26/35/6
f 27/36/6 8/12/6 28/37/6
f 29/38/6 8/12/6 30/39/6
f 31/40/6 8/12/6 32/41/6
f 33/42/6 8/12/6 7/25/6
f 34/43/6 7/25/6 35/44/6
f 36/45/6 7/25/6 37/46/6
f 38/47/6 7/25/6 39/48/6
f 40/49/6 7/25/6 17/24/6
f 34/50/7 42/51/8 33/52/9
f 42/53/8 32/54/10 33/55/9
f 44/56/6 42/51/8 41/57/11
f 35/58/12 41/57/11 34/50/7
f 43/59/13 31/60/14 32/54/10
f 44/61/6 43/59/13 42/53/8
f 44/62/6 41/57/11 45/63/15
f 47/64/16 35/58/12 36/65/17
f 31/60/14 48/66/18 30/67/19
f 44/68/6 46/69/20 43/59/13
f 44/70/6 45/63/15 47/64/16
f 49/71/21 36/65/17 37/72/22
f 48/66/18 29/73/23 30/67/19
f 44/74/6 48/66/18 46/69/20
f 44/75/6 47/64/16 49/71/21
f 38/76/24 49/71/21 37/72/22
f 29/73/23 52/77/25 28/78/26
f 44/79/6 50/80/27 48/66/18
f 44/81/6 49/71/21 51/82/28
f 39/83/29 51/82/28 38/76/24
f 52/77/25 27/84/30 28/78/26
f 44/85/6 52/77/25 50/80/27
f 44/86/6 51/82/28 53/87/31
f 55/88/32 39/83/29 40/89/33
f 54/90/34 26/91/35 27/84/30
f 44/92/6 54/90/34 52/77/25
f 44/93/6 53/87/31 55/88/32
f 57/94/36 40/89/33 17/95/37
f 56/96/38 25/97/39 26/91/35
f 44/98/6 56/96/38 54/90/34
f 44/99/6 55/88/32 57/94/36
f 16/100/40 57/94/36 17/95/37
f 25/97/39 60/101/41 24/102/42
f 44/103/6 58/104/43 56/96/38
f 44/105/6 57/94/36 59/106/44
f 61/107/45 16/100/40 15/108/46
f 60/101/41 23/109/47 24/102/42
f 44/110/6 60/101/41 58/104/43
f 44/111/6 59/106/44 61/107/45
f 63/112/48 15/108/46 14/113/49
f 23/109/47 64/114/50 22/115/51
f 44/116/6 62/117/52 60/101/41
f 44/118/6 61/107/45 63/112/48
f 13/119/53 63/112/48 14/113/49
f 64/114/50 21/120/54 22/115/51
f 44/121/6 64/114/50 62/117/52
f 44/122/6 63/112/48 65/123/55
f 12/124/56 65/123/55 13/119/53
f 21/120/54 68/125/57 20/126/58
f 44/127/6 66/128/59 64/114/50
f 44/129/6 65/123/55 67/130/60
f 69/131/61 12/124/56 11/132/62
f 20/126/58 70/133/63 19/134/64
f 44/135/6 68/125/57 66/128/59
f 44/136/6 67/130/60 69/131/61
f 71/137/65 11/132/62 10/138/66
f 70/133/63 18/139/67 19/134/64
f 44/140/6 70/133/63 68/125/57
f 44/141/6 69/131/61 71/137/65
f 9/142/68 71/137/65 10/138/66
f 72/143/69 9/142/68 18/139/67
f 44/144/6 72/143/69 70/133/63
f 44/145/6 71/137/65 73/146/70
f 44/147/6 73/146/70 72/143/69
f 2/1/1 3/13/1 4/2/1
f 5/4/2 6/148/2 4/5/2
f 6/7/3 7/25/3 1/8/3
f 7/9/4 8/149/4 2/10/4
f 8/12/5 5/150/5 3/13/5
f 6/15/6 5/27/6 9/16/6
f 6/15/6 10/17/6 11/18/6
f 6/15/6 12/19/6 13/20/6
f 6/15/6 14/21/6 15/22/6
f 6/15/6 16/23/6 17/24/6
f 18/26/6 9/16/6 5/27/6
f 20/29/6 19/28/6 5/27/6
f 22/31/6 21/30/6 5/27/6
f 24/33/6 23/32/6 5/27/6
f 25/34/6 5/27/6 8/12/6
f 27/36/6 26/35/6 8/12/6
f 29/38/6 28/37/6 8/12/6
f 31/40/6 30/39/6 8/12/6
f 33/42/6 32/41/6 8/12/6
f 34/43/6 33/42/6 7/25/6
f 36/45/6 35/44/6 7/25/6
f 38/47/6 37/46/6 7/25/6
f 40/49/6 39/48/6 7/25/6
f 34/50/7 41/57/11 42/51/8
f 42/53/8 43/59/13 32/54/10
f 35/58/12 45/63/15 41/57/11
f 43/59/13 46/69/20 31/60/14
f 47/64/16 45/63/15 35/58/12
f 31/60/14 46/69/20 48/66/18
f 49/71/21 47/64/16 36/65/17
f 48/66/18 50/80/27 29/73/23
f 38/76/24 51/82/28 49/71/21
f 29/73/23 50/80/27 52/77/25
f 39/83/29 53/87/31 51/82/28
f 52/77/25 54/90/34 27/84/30
f 55/88/32 53/87/31 39/83/29
f 54/90/34 56/96/38 26/91/35
f 57/94/36 55/88/32 40/89/33
f 56/96/38 58/104/43 25/97/39
f 16/100/40 59/106/44 57/94/36
f 25/97/39 58/104/43 60/101/41
f 61/107/45 59/106/44 16/100/40
f 60/101/41 62/117/52 23/109/47
f 63/112/48 61/107/45 15/108/46
f 23/109/47 62/117/52 64/114/50
f 13/119/53 65/123/55 63/112/48
f 64/114/50 66/128/59 21/120/54
f 12/124/56 67/130/60 65/123/55
f 21/120/54 66/128/59 68/125/57
f 69/131/61 67/130/60 12/124/56
f 20/126/58 68/125/57 70/133/63
f 71/137/65 69/131/61 11/132/62
f 70/133/63 72/143/69 18/139/67
f 9/142/68 73/146/70 71/137/65
f 72/143/69 73/146/70 9/142/68
