# 3ds Max Wavefront OBJ Exporter v0.97b - (c)2007 guruware
# File Created: 04.02.2018 15:59:04

mtllib Bana.mtl

#
# object Box001
#

v  -25.0000 0.0000 -25.0001
v  25.0000 0.0000 -25.0001
v  25.0000 0.0000 24.9999
v  -25.0000 0.0000 24.9999
v  25.0000 10.0000 24.9999
v  -25.0000 10.0000 24.9999
v  -25.0000 10.0000 -25.0001
v  25.0000 10.0000 -25.0001
v  0.0005 10.0000 23.6701
v  -4.6174 10.0000 23.2153
v  -9.0578 10.0000 21.8683
v  -13.1501 10.0000 19.6810
v  -16.7371 10.0000 16.7372
v  -19.6808 10.0000 13.1503
v  -21.8682 10.0000 9.0580
v  -23.2152 10.0000 4.6176
v  -23.6700 10.0000 -0.0003
v  4.6184 10.0000 23.2153
v  9.0588 10.0000 21.8683
v  13.1511 10.0000 19.6809
v  16.7380 10.0000 16.7372
v  19.6818 10.0000 13.1503
v  21.8691 10.0000 9.0579
v  23.2161 10.0000 4.6175
v  23.6709 10.0000 -0.0004
v  23.2161 10.0000 -4.6182
v  21.8691 10.0000 -9.0587
v  19.6817 10.0000 -13.1510
v  16.7380 10.0000 -16.7379
v  13.1510 10.0000 -19.6816
v  9.0587 10.0000 -21.8690
v  4.6183 10.0000 -23.2160
v  0.0005 10.0000 -23.6708
v  -4.6174 10.0000 -23.2160
v  -9.0578 10.0000 -21.8690
v  -13.1501 10.0000 -19.6816
v  -16.7371 10.0000 -16.7379
v  -19.6808 10.0000 -13.1509
v  -21.8682 10.0000 -9.0586
v  -23.2152 10.0000 -4.6182
v  -3.1172 7.6673 -15.6738
v  0.0005 7.6673 -15.9809
v  3.1181 7.6673 -15.6738
v  0.0005 6.0934 -0.0003
v  -6.1150 7.6673 -14.7644
v  6.1159 7.6673 -14.7644
v  -8.8778 7.6673 -13.2877
v  8.8788 7.6673 -13.2877
v  -11.2995 7.6673 -11.3003
v  11.3004 7.6673 -11.3003
v  -13.2869 7.6673 -8.8786
v  13.2878 7.6673 -8.8787
v  -14.7636 7.6673 -6.1158
v  14.7646 7.6673 -6.1158
v  -15.6730 7.6673 -3.1180
v  15.6739 7.6673 -3.1180
v  -15.9801 7.6673 -0.0003
v  15.9810 7.6673 -0.0003
v  -15.6730 7.6673 3.1173
v  15.6740 7.6673 3.1173
v  -14.7636 7.6673 6.1152
v  14.7646 7.6673 6.1151
v  -13.2869 7.6673 8.8780
v  13.2878 7.6673 8.8780
v  -11.2995 7.6673 11.2996
v  11.3004 7.6673 11.2996
v  -8.8778 7.6673 13.2870
v  8.8788 7.6673 13.2870
v  -6.1150 7.6673 14.7638
v  6.1160 7.6673 14.7638
v  -3.1172 7.6673 15.6732
v  3.1181 7.6673 15.6732
v  0.0005 7.6673 15.9802
# 73 vertices

vn 0.0000 -1.0000 -0.0000
vn 0.0000 0.0000 1.0000
vn -1.0000 0.0000 -0.0000
vn 0.0000 0.0000 -1.0000
vn 1.0000 0.0000 -0.0000
vn 0.0000 1.0000 -0.0000
vn 0.0566 0.9569 0.2847
vn 0.0392 0.9796 0.1971
vn 0.0000 0.9796 0.2010
vn 0.0000 0.9569 0.2903
vn -0.0392 0.9796 0.1971
vn -0.0566 0.9569 0.2847
vn -0.0000 1.0000 0.0000
vn 0.1111 0.9569 0.2682
vn 0.0769 0.9796 0.1857
vn -0.0769 0.9796 0.1857
vn -0.1111 0.9569 0.2682
vn 0.1613 0.9569 0.2414
vn 0.1117 0.9796 0.1671
vn -0.1117 0.9796 0.1671
vn -0.1613 0.9569 0.2414
vn 0.2053 0.9569 0.2053
vn 0.1421 0.9796 0.1421
vn -0.1421 0.9796 0.1421
vn -0.2053 0.9569 0.2053
vn 0.2414 0.9569 0.1613
vn 0.1671 0.9796 0.1117
vn -0.1671 0.9796 0.1117
vn -0.2414 0.9569 0.1613
vn 0.2682 0.9569 0.1111
vn 0.1857 0.9796 0.0769
vn -0.1857 0.9796 0.0769
vn -0.2682 0.9569 0.1111
vn 0.2847 0.9569 0.0566
vn 0.1971 0.9796 0.0392
vn -0.1971 0.9796 0.0392
vn -0.2847 0.9569 0.0566
vn 0.2903 0.9569 -0.0000
vn 0.2010 0.9796 -0.0000
vn -0.2010 0.9796 0.0000
vn -0.2903 0.9569 0.0000
vn 0.2847 0.9569 -0.0566
vn 0.1971 0.9796 -0.0392
vn -0.1971 0.9796 -0.0392
vn -0.2847 0.9569 -0.0566
vn 0.2682 0.9569 -0.1111
vn 0.1857 0.9796 -0.0769
vn -0.1857 0.9796 -0.0769
vn -0.2682 0.9569 -0.1111
vn 0.2414 0.9569 -0.1613
vn 0.1671 0.9796 -0.1117
vn -0.1671 0.9796 -0.1117
vn -0.2414 0.9569 -0.1613
vn 0.2053 0.9569 -0.2053
vn 0.1421 0.9796 -0.1421
vn -0.1421 0.9796 -0.1421
vn -0.2053 0.9569 -0.2053
vn 0.1613 0.9569 -0.2414
vn 0.1117 0.9796 -0.1671
vn -0.1117 0.9796 -0.1671
vn -0.1613 0.9569 -0.2414
vn 0.1111 0.9569 -0.2682
vn 0.0769 0.9796 -0.1857
vn -0.0769 0.9796 -0.1857
vn -0.1111 0.9569 -0.2682
vn 0.0566 0.9569 -0.2847
vn 0.0392 0.9796 -0.1971
vn -0.0392 0.9796 -0.1971
vn -0.0566 0.9569 -0.2847
vn -0.0000 0.9569 -0.2903
vn -0.0000 0.9796 -0.2010
# 71 vertex normals

vt 1.0000 1.0000 0.0000
vt 0.0000 1.0000 0.0000
vt 0.0000 0.0000 0.0000
vt 1.0000 0.0000 0.0000
vt 0.5000 0.0266 0.0000
vt 0.4077 0.0357 0.0000
vt 0.3188 0.0626 0.0000
vt 0.2370 0.1064 0.0000
vt 0.1653 0.1653 0.0000
vt 0.1064 0.2370 0.0000
vt 0.0626 0.3188 0.0000
vt 0.0357 0.4076 0.0000
vt 0.0266 0.5000 0.0000
vt 0.5924 0.0357 0.0000
vt 0.6812 0.0626 0.0000
vt 0.7630 0.1064 0.0000
vt 0.8348 0.1653 0.0000
vt 0.8936 0.2370 0.0000
vt 0.9374 0.3188 0.0000
vt 0.9643 0.4076 0.0000
vt 0.9734 0.5000 0.0000
vt 0.9643 0.5924 0.0000
vt 0.9374 0.6812 0.0000
vt 0.8936 0.7630 0.0000
vt 0.8348 0.8348 0.0000
vt 0.7630 0.8936 0.0000
vt 0.6812 0.9374 0.0000
vt 0.5924 0.9643 0.0000
vt 0.5000 0.9734 0.0000
vt 0.4077 0.9643 0.0000
vt 0.3188 0.9374 0.0000
vt 0.2370 0.8936 0.0000
vt 0.1653 0.8348 0.0000
vt 0.1064 0.7630 0.0000
vt 0.0626 0.6812 0.0000
vt 0.0357 0.5924 0.0000
vt 0.0313 0.0938 0.0000
vt 0.0313 0.0625 0.0000
vt 0.0000 0.0625 0.0000
vt 0.0000 0.0938 0.0000
vt 1.0000 0.0938 0.0000
vt 1.0000 0.0625 0.0000
vt 0.9688 0.0625 0.0000
vt 0.9688 0.0938 0.0000
vt 0.0000 -0.0000 0.0000
vt 0.0625 0.0938 0.0000
vt 0.0625 0.0625 0.0000
vt 0.9375 0.0625 0.0000
vt 0.9375 0.0938 0.0000
vt 0.9688 -0.0000 0.0000
vt 0.0313 -0.0000 0.0000
vt 0.0938 0.0938 0.0000
vt 0.0938 0.0625 0.0000
vt 0.9063 0.0625 0.0000
vt 0.9063 0.0938 0.0000
vt 0.9375 -0.0000 0.0000
vt 0.0625 -0.0000 0.0000
vt 0.1250 0.0938 0.0000
vt 0.1250 0.0625 0.0000
vt 0.8750 0.0625 0.0000
vt 0.8750 0.0938 0.0000
vt 0.9063 -0.0000 0.0000
vt 0.0938 -0.0000 0.0000
vt 0.1563 0.0938 0.0000
vt 0.1563 0.0625 0.0000
vt 0.8438 0.0625 0.0000
vt 0.8438 0.0938 0.0000
vt 0.8750 -0.0000 0.0000
vt 0.1250 -0.0000 0.0000
vt 0.1875 0.0938 0.0000
vt 0.1875 0.0625 0.0000
vt 0.8125 0.0625 0.0000
vt 0.8125 0.0938 0.0000
vt 0.8438 -0.0000 0.0000
vt 0.1563 -0.0000 0.0000
vt 0.2187 0.0938 0.0000
vt 0.2187 0.0625 0.0000
vt 0.7813 0.0625 0.0000
vt 0.7813 0.0938 0.0000
vt 0.8125 -0.0000 0.0000
vt 0.1875 -0.0000 0.0000
vt 0.2500 0.0938 0.0000
vt 0.2500 0.0625 0.0000
vt 0.7500 0.0625 0.0000
vt 0.7500 0.0938 0.0000
vt 0.7813 -0.0000 0.0000
vt 0.2187 -0.0000 0.0000
vt 0.2812 0.0938 0.0000
vt 0.2812 0.0625 0.0000
vt 0.7188 0.0625 0.0000
vt 0.7188 0.0938 0.0000
vt 0.7500 -0.0000 0.0000
vt 0.2500 -0.0000 0.0000
vt 0.3125 0.0938 0.0000
vt 0.3125 0.0625 0.0000
vt 0.6875 0.0625 0.0000
vt 0.6875 0.0938 0.0000
vt 0.7188 -0.0000 0.0000
vt 0.2812 -0.0000 0.0000
vt 0.3437 0.0938 0.0000
vt 0.3437 0.0625 0.0000
vt 0.6563 0.0625 0.0000
vt 0.6563 0.0938 0.0000
vt 0.6875 -0.0000 0.0000
vt 0.3125 -0.0000 0.0000
vt 0.3750 0.0938 0.0000
vt 0.3750 0.0625 0.0000
vt 0.6250 0.0625 0.0000
vt 0.6250 0.0938 0.0000
vt 0.6563 -0.0000 0.0000
vt 0.3437 -0.0000 0.0000
vt 0.4063 0.0938 0.0000
vt 0.4063 0.0625 0.0000
vt 0.5938 0.0625 0.0000
vt 0.5938 0.0938 0.0000
vt 0.6250 -0.0000 0.0000
vt 0.3750 -0.0000 0.0000
vt 0.4375 0.0938 0.0000
vt 0.4375 0.0625 0.0000
vt 0.5625 0.0625 0.0000
vt 0.5625 0.0938 0.0000
vt 0.5938 -0.0000 0.0000
vt 0.4063 -0.0000 0.0000
vt 0.4688 0.0938 0.0000
vt 0.4688 0.0625 0.0000
vt 0.5313 0.0625 0.0000
vt 0.5313 0.0938 0.0000
vt 0.5625 -0.0000 0.0000
vt 0.4375 -0.0000 0.0000
vt 0.5000 0.0938 0.0000
vt 0.5000 0.0625 0.0000
vt 0.5313 -0.0000 0.0000
vt 0.4688 -0.0000 0.0000
vt 0.5000 -0.0000 0.0000
# 134 texture coords

g Box001
usemtl wire_113135006
s 2
f 1/1/1 2/2/1 3/3/1 4/4/1 
s 8
f 3/4/2 5/1/2 6/2/2 4/3/2 
s 64
f 4/4/3 6/1/3 7/2/3 1/3/3 
s 32
f 1/4/4 7/1/4 8/2/4 2/3/4 
s 16
f 2/4/5 8/1/5 5/2/5 3/3/5 
s 4
f 6/3/6 5/4/6 9/5/6 10/6/6 
f 6/3/6 10/6/6 11/7/6 12/8/6 
f 6/3/6 12/8/6 13/9/6 14/10/6 
f 6/3/6 14/10/6 15/11/6 16/12/6 
f 6/3/6 16/12/6 17/13/6 7/2/6 
f 18/14/6 9/5/6 5/4/6 19/15/6 
f 20/16/6 19/15/6 5/4/6 21/17/6 
f 22/18/6 21/17/6 5/4/6 23/19/6 
f 24/20/6 23/19/6 5/4/6 25/21/6 
f 25/21/6 5/4/6 8/1/6 26/22/6 
f 27/23/6 26/22/6 8/1/6 28/24/6 
f 29/25/6 28/24/6 8/1/6 30/26/6 
f 31/27/6 30/26/6 8/1/6 32/28/6 
f 33/29/6 32/28/6 8/1/6 7/2/6 
f 34/30/6 33/29/6 7/2/6 35/31/6 
f 36/32/6 35/31/6 7/2/6 37/33/6 
f 38/34/6 37/33/6 7/2/6 39/35/6 
f 40/36/6 39/35/6 7/2/6 17/13/6 
s 1
f 34/37/7 41/38/8 42/39/9 33/40/10 
f 33/41/10 42/42/9 43/43/11 32/44/12 
f 44/45/13 42/39/9 41/38/8 
f 35/46/14 45/47/15 41/38/8 34/37/7 
f 32/44/12 43/43/11 46/48/16 31/49/17 
f 44/50/13 43/43/11 42/42/9 
f 44/51/13 41/38/8 45/47/15 
f 36/52/18 47/53/19 45/47/15 35/46/14 
f 31/49/17 46/48/16 48/54/20 30/55/21 
f 44/56/13 46/48/16 43/43/11 
f 44/57/13 45/47/15 47/53/19 
f 37/58/22 49/59/23 47/53/19 36/52/18 
f 30/55/21 48/54/20 50/60/24 29/61/25 
f 44/62/13 48/54/20 46/48/16 
f 44/63/13 47/53/19 49/59/23 
f 38/64/26 51/65/27 49/59/23 37/58/22 
f 29/61/25 50/60/24 52/66/28 28/67/29 
f 44/68/13 50/60/24 48/54/20 
f 44/69/13 49/59/23 51/65/27 
f 39/70/30 53/71/31 51/65/27 38/64/26 
f 28/67/29 52/66/28 54/72/32 27/73/33 
f 44/74/13 52/66/28 50/60/24 
f 44/75/13 51/65/27 53/71/31 
f 40/76/34 55/77/35 53/71/31 39/70/30 
f 27/73/33 54/72/32 56/78/36 26/79/37 
f 44/80/13 54/72/32 52/66/28 
f 44/81/13 53/71/31 55/77/35 
f 17/82/38 57/83/39 55/77/35 40/76/34 
f 26/79/37 56/78/36 58/84/40 25/85/41 
f 44/86/13 56/78/36 54/72/32 
f 44/87/13 55/77/35 57/83/39 
f 16/88/42 59/89/43 57/83/39 17/82/38 
f 25/85/41 58/84/40 60/90/44 24/91/45 
f 44/92/13 58/84/40 56/78/36 
f 44/93/13 57/83/39 59/89/43 
f 15/94/46 61/95/47 59/89/43 16/88/42 
f 24/91/45 60/90/44 62/96/48 23/97/49 
f 44/98/13 60/90/44 58/84/40 
f 44/99/13 59/89/43 61/95/47 
f 14/100/50 63/101/51 61/95/47 15/94/46 
f 23/97/49 62/96/48 64/102/52 22/103/53 
f 44/104/13 62/96/48 60/90/44 
f 44/105/13 61/95/47 63/101/51 
f 13/106/54 65/107/55 63/101/51 14/100/50 
f 22/103/53 64/102/52 66/108/56 21/109/57 
f 44/110/13 64/102/52 62/96/48 
f 44/111/13 63/101/51 65/107/55 
f 12/112/58 67/113/59 65/107/55 13/106/54 
f 21/109/57 66/108/56 68/114/60 20/115/61 
f 44/116/13 66/108/56 64/102/52 
f 44/117/13 65/107/55 67/113/59 
f 11/118/62 69/119/63 67/113/59 12/112/58 
f 20/115/61 68/114/60 70/120/64 19/121/65 
f 44/122/13 68/114/60 66/108/56 
f 44/123/13 67/113/59 69/119/63 
f 10/124/66 71/125/67 69/119/63 11/118/62 
f 19/121/65 70/120/64 72/126/68 18/127/69 
f 44/128/13 70/120/64 68/114/60 
f 44/129/13 69/119/63 71/125/67 
f 9/130/70 73/131/71 71/125/67 10/124/66 
f 18/127/69 72/126/68 73/131/71 9/130/70 
f 44/132/13 72/126/68 70/120/64 
f 44/133/13 71/125/67 73/131/71 
f 44/134/13 73/131/71 72/126/68 
# 55 polygons - 32 triangles

